<svg width="512" height="512" version="1.1" xmlns="http://www.w3.org/2000/svg" desc="Created with imagetracer.js version 1.2.6" ><path fill="rgb(0,0,0)" stroke="rgb(0,0,0)" stroke-width="1" opacity="0.796078431372549" d="M 192.5 28 L 208 28.5 L 192.5 29 L 192.5 28 Z " /><path fill="rgb(0,0,0)" stroke="rgb(0,0,0)" stroke-width="1" opacity="0.796078431372549" d="M 179.5 29 L 182 29.5 L 179.5 30 L 179.5 29 Z " /><path fill="rgb(0,0,0)" stroke="rgb(0,0,0)" stroke-width="1" opacity="0.796078431372549" d="M 218.5 29 L 221 29.5 L 218.5 30 L 218.5 29 Z " /><path fill="rgb(0,0,0)" stroke="rgb(0,0,0)" stroke-width="1" opacity="0.796078431372549" d="M 172.5 30 L 176 30.5 L 172.5 31 L 172.5 30 Z " /><path fill="rgb(0,0,0)" stroke="rgb(0,0,0)" stroke-width="1" opacity="0.796078431372549" d="M 225.5 30 L 228 30.5 L 225.5 31 L 225.5 30 Z " /><path fill="rgb(0,0,0)" stroke="rgb(0,0,0)" stroke-width="1" opacity="0.796078431372549" d="M 166.5 31 L 169 31.5 L 166.5 32 L 166.5 31 Z " /><path fill="rgb(0,0,0)" stroke="rgb(0,0,0)" stroke-width="1" opacity="0.796078431372549" d="M 231.5 31 L 234 31.5 L 231.5 32 L 231.5 31 Z " /><path fill="rgb(0,0,0)" stroke="rgb(0,0,0)" stroke-width="1" opacity="0.796078431372549" d="M 116.5 49 L 115.5 51 L 116.5 49 Z " /><path fill="rgb(0,0,0)" stroke="rgb(0,0,0)" stroke-width="1" opacity="0.796078431372549" d="M 283.5 49 L 284.5 51 L 283.5 49 Z " /><path fill="rgb(0,0,0)" stroke="rgb(0,0,0)" stroke-width="1" opacity="0.796078431372549" d="M 288.5 52 L 289.5 54 L 288.5 52 Z " /><path fill="rgb(0,0,0)" stroke="rgb(0,0,0)" stroke-width="1" opacity="0.796078431372549" d="M 195.5 56 L 205 56.5 L 195.5 57 L 195.5 56 Z " /><path fill="rgb(0,0,0)" stroke="rgb(0,0,0)" stroke-width="1" opacity="0.796078431372549" d="M 103.5 57 L 102.5 59 L 103.5 57 Z " /><path fill="rgb(0,0,0)" stroke="rgb(0,0,0)" stroke-width="1" opacity="0.796078431372549" d="M 182.5 57 L 185 57.5 L 182.5 58 L 182.5 57 Z " /><path fill="rgb(0,0,0)" stroke="rgb(0,0,0)" stroke-width="1" opacity="0.796078431372549" d="M 215.5 57 L 218 57.5 L 215.5 58 L 215.5 57 Z " /><path fill="rgb(0,0,0)" stroke="rgb(0,0,0)" stroke-width="1" opacity="0.796078431372549" d="M 296.5 57 L 297.5 59 L 296.5 57 Z " /><path fill="rgb(0,0,0)" stroke="rgb(0,0,0)" stroke-width="1" opacity="0.796078431372549" d="M 175.5 58 L 179 58.5 L 175.5 59 L 175.5 58 Z " /><path fill="rgb(0,0,0)" stroke="rgb(0,0,0)" stroke-width="1" opacity="0.796078431372549" d="M 221.5 58 L 225 58.5 L 221.5 59 L 221.5 58 Z " /><path fill="rgb(0,0,0)" stroke="rgb(0,0,0)" stroke-width="1" opacity="0.796078431372549" d="M 228.5 59 L 231 59.5 L 228.5 60 L 228.5 59 Z " /><path fill="rgb(0,0,0)" stroke="rgb(0,0,0)" stroke-width="1" opacity="0.796078431372549" d="M 299.5 59 L 301.5 62 L 299.5 59 Z " /><path fill="rgb(0,0,0)" stroke="rgb(0,0,0)" stroke-width="1" opacity="0.796078431372549" d="M 99.5 60 L 98.5 62 L 99.5 60 Z " /><path fill="rgb(0,0,0)" stroke="rgb(0,0,0)" stroke-width="1" opacity="0.796078431372549" d="M 303.5 62 L 305.5 65 L 303.5 62 Z " /><path fill="rgb(0,0,0)" stroke="rgb(0,0,0)" stroke-width="1" opacity="0.796078431372549" d="M 95.5 63 L 94.5 65 L 95.5 63 Z " /><path fill="rgb(0,0,0)" stroke="rgb(0,0,0)" stroke-width="1" opacity="0.796078431372549" d="M 307.5 65 L 309.5 68 L 307.5 65 Z " /><path fill="rgb(0,0,0)" stroke="rgb(0,0,0)" stroke-width="1" opacity="0.796078431372549" d="M 91.5 66 L 90.5 68 L 91.5 66 Z " /><path fill="rgb(0,0,0)" stroke="rgb(0,0,0)" stroke-width="1" opacity="0.796078431372549" d="M 312.5 69 L 318.5 76 L 312.5 69 Z " /><path fill="rgb(0,0,0)" stroke="rgb(0,0,0)" stroke-width="1" opacity="0.796078431372549" d="M 86.5 70 L 80.5 77 L 86.5 70 Z " /><path fill="rgb(0,0,0)" stroke="rgb(0,0,0)" stroke-width="1" opacity="0.796078431372549" d="M 129.5 74 L 128.5 76 L 129.5 74 Z " /><path fill="rgb(0,0,0)" stroke="rgb(0,0,0)" stroke-width="1" opacity="0.796078431372549" d="M 270.5 74 L 271.5 76 L 270.5 74 Z " /><path fill="rgb(0,0,0)" stroke="rgb(0,0,0)" stroke-width="1" opacity="0.796078431372549" d="M 185.5 76 L 189 76.5 L 185.5 77 L 185.5 76 Z " /><path fill="rgb(0,0,0)" stroke="rgb(0,0,0)" stroke-width="1" opacity="0.796078431372549" d="M 178.5 77 L 181 77.5 L 178.5 78 L 178.5 77 Z " /><path fill="rgb(0,0,0)" stroke="rgb(0,0,0)" stroke-width="1" opacity="0.796078431372549" d="M 204.5 77 L 205.5 79 L 204.5 77 Z " /><path fill="rgb(0,0,0)" stroke="rgb(0,0,0)" stroke-width="1" opacity="0.796078431372549" d="M 275.5 77 L 276.5 79 L 275.5 77 Z " /><path fill="rgb(0,0,0)" stroke="rgb(0,0,0)" stroke-width="1" opacity="0.796078431372549" d="M 121.5 79 L 120.5 81 L 121.5 79 Z " /><path fill="rgb(0,0,0)" stroke="rgb(0,0,0)" stroke-width="1" opacity="0.796078431372549" d="M 73.5 83 L 68.5 89 L 73.5 83 Z " /><path fill="rgb(0,0,0)" stroke="rgb(0,0,0)" stroke-width="1" opacity="0.796078431372549" d="M 115.5 83 L 114.5 85 L 115.5 83 Z " /><path fill="rgb(0,0,0)" stroke="rgb(0,0,0)" stroke-width="1" opacity="0.796078431372549" d="M 284.5 83 L 285.5 85 L 284.5 83 Z " /><path fill="rgb(0,0,0)" stroke="rgb(0,0,0)" stroke-width="1" opacity="0.796078431372549" d="M 206.5 84 L 207 85.5 L 205 86.5 L 206.5 84 Z " /><path fill="rgb(0,0,0)" stroke="rgb(0,0,0)" stroke-width="1" opacity="0.796078431372549" d="M 327.5 84 L 332.5 90 L 327.5 84 Z " /><path fill="rgb(0,0,0)" stroke="rgb(0,0,0)" stroke-width="1" opacity="0.796078431372549" d="M 111.5 86 L 110.5 88 L 111.5 86 Z " /><path fill="rgb(0,0,0)" stroke="rgb(0,0,0)" stroke-width="1" opacity="0.796078431372549" d="M 288.5 86 L 289.5 88 L 288.5 86 Z " /><path fill="rgb(0,0,0)" stroke="rgb(0,0,0)" stroke-width="1" opacity="0.796078431372549" d="M 107.5 89 L 103.5 94 L 107.5 89 Z " /><path fill="rgb(0,0,0)" stroke="rgb(0,0,0)" stroke-width="1" opacity="0.796078431372549" d="M 142.5 89 L 141.5 91 L 142.5 89 Z " /><path fill="rgb(0,0,0)" stroke="rgb(0,0,0)" stroke-width="1" opacity="0.796078431372549" d="M 199.5 89 L 202 89.5 L 199.5 90 L 199.5 89 Z " /><path fill="rgb(0,0,0)" stroke="rgb(0,0,0)" stroke-width="1" opacity="0.796078431372549" d="M 292.5 89 L 296.5 94 L 292.5 89 Z " /><path fill="rgb(0,0,0)" stroke="rgb(0,0,0)" stroke-width="1" opacity="0.796078431372549" d="M 185.5 90 L 191 90.5 L 185.5 91 L 185.5 90 Z " /><path fill="rgb(0,0,0)" stroke="rgb(0,0,0)" stroke-width="1" opacity="0.796078431372549" d="M 65.5 92 L 63.5 95 L 65.5 92 Z " /><path fill="rgb(0,0,0)" stroke="rgb(0,0,0)" stroke-width="1" opacity="0.796078431372549" d="M 335.5 93 L 336.5 95 L 335.5 93 Z " /><path fill="rgb(0,0,0)" stroke="rgb(0,0,0)" stroke-width="1" opacity="0.796078431372549" d="M 62.5 96 L 60.5 99 L 62.5 96 Z " /><path fill="rgb(0,0,0)" stroke="rgb(0,0,0)" stroke-width="1" opacity="0.796078431372549" d="M 130.5 96 L 129.5 98 L 130.5 96 Z " /><path fill="rgb(0,0,0)" stroke="rgb(0,0,0)" stroke-width="1" opacity="0.796078431372549" d="M 98.5 97 L 95.5 101 L 98.5 97 Z " /><path fill="rgb(0,0,0)" stroke="rgb(0,0,0)" stroke-width="1" opacity="0.796078431372549" d="M 301.5 97 L 305.5 102 L 301.5 97 Z " /><path fill="rgb(0,0,0)" stroke="rgb(0,0,0)" stroke-width="1" opacity="0.796078431372549" d="M 338.5 97 L 339.5 99 L 338.5 97 Z " /><path fill="rgb(0,0,0)" stroke="rgb(0,0,0)" stroke-width="1" opacity="0.796078431372549" d="M 127.5 98 L 126.5 100 L 127.5 98 Z " /><path fill="rgb(0,0,0)" stroke="rgb(0,0,0)" stroke-width="1" opacity="0.796078431372549" d="M 59.5 100 L 57.5 103 L 59.5 100 Z " /><path fill="rgb(0,0,0)" stroke="rgb(0,0,0)" stroke-width="1" opacity="0.796078431372549" d="M 123.5 101 L 121.5 104 L 123.5 101 Z " /><path fill="rgb(0,0,0)" stroke="rgb(0,0,0)" stroke-width="1" opacity="0.796078431372549" d="M 341.5 101 L 342.5 103 L 341.5 101 Z " /><path fill="rgb(0,0,0)" stroke="rgb(0,0,0)" stroke-width="1" opacity="0.796078431372549" d="M 56.5 104 L 55.5 106 L 56.5 104 Z " /><path fill="rgb(0,0,0)" stroke="rgb(0,0,0)" stroke-width="1" opacity="0.796078431372549" d="M 91.5 105 L 87.5 110 L 91.5 105 Z " /><path fill="rgb(0,0,0)" stroke="rgb(0,0,0)" stroke-width="1" opacity="0.796078431372549" d="M 118.5 105 L 115.5 109 L 118.5 105 Z " /><path fill="rgb(0,0,0)" stroke="rgb(0,0,0)" stroke-width="1" opacity="0.796078431372549" d="M 142.5 105 L 141.5 107 L 142.5 105 Z " /><path fill="rgb(0,0,0)" stroke="rgb(0,0,0)" stroke-width="1" opacity="0.796078431372549" d="M 309.5 106 L 313.5 111 L 309.5 106 Z " /><path fill="rgb(0,0,0)" stroke="rgb(0,0,0)" stroke-width="1" opacity="0.796078431372549" d="M 54.5 107 L 53.5 109 L 54.5 107 Z " /><path fill="rgb(0,0,0)" stroke="rgb(0,0,0)" stroke-width="1" opacity="0.796078431372549" d="M 139.5 107 L 138.5 109 L 139.5 107 Z " /><path fill="rgb(0,0,0)" stroke="rgb(0,0,0)" stroke-width="1" opacity="0.796078431372549" d="M 136.5 109 L 135.5 111 L 136.5 109 Z " /><path fill="rgb(0,0,0)" stroke="rgb(0,0,0)" stroke-width="1" opacity="0.796078431372549" d="M 133.5 111 L 132.5 113 L 133.5 111 Z " /><path fill="rgb(0,0,0)" stroke="rgb(0,0,0)" stroke-width="1" opacity="0.796078431372549" d="M 51.5 112 L 50.5 114 L 51.5 112 Z " /><path fill="rgb(0,0,0)" stroke="rgb(0,0,0)" stroke-width="1" opacity="0.796078431372549" d="M 85.5 112 L 84.5 114 L 85.5 112 Z " /><path fill="rgb(0,0,0)" stroke="rgb(0,0,0)" stroke-width="1" opacity="0.796078431372549" d="M 314.5 112 L 316.5 115 L 314.5 112 Z " /><path fill="rgb(0,0,0)" stroke="rgb(0,0,0)" stroke-width="1" opacity="0.796078431372549" d="M 129.5 114 L 125.5 119 L 129.5 114 Z " /><path fill="rgb(0,0,0)" stroke="rgb(0,0,0)" stroke-width="1" opacity="0.796078431372549" d="M 350.5 115 L 351.5 117 L 350.5 115 Z " /><path fill="rgb(0,0,0)" stroke="rgb(0,0,0)" stroke-width="1" opacity="0.796078431372549" d="M 82.5 116 L 81.5 118 L 82.5 116 Z " /><path fill="rgb(0,0,0)" stroke="rgb(0,0,0)" stroke-width="1" opacity="0.796078431372549" d="M 317.5 116 L 319.5 119 L 317.5 116 Z " /><path fill="rgb(0,0,0)" stroke="rgb(0,0,0)" stroke-width="1" opacity="0.796078431372549" d="M 48.5 117 L 47.5 119 L 48.5 117 Z " /><path fill="rgb(0,0,0)" stroke="rgb(0,0,0)" stroke-width="1" opacity="0.796078431372549" d="M 105.5 118 L 102.5 122 L 105.5 118 Z " /><path fill="rgb(0,0,0)" stroke="rgb(0,0,0)" stroke-width="1" opacity="0.796078431372549" d="M 79.5 120 L 78.5 122 L 79.5 120 Z " /><path fill="rgb(0,0,0)" stroke="rgb(0,0,0)" stroke-width="1" opacity="0.796078431372549" d="M 122.5 120 L 119.5 124 L 122.5 120 Z " /><path fill="rgb(0,0,0)" stroke="rgb(0,0,0)" stroke-width="1" opacity="0.796078431372549" d="M 320.5 120 L 321.5 122 L 320.5 120 Z " /><path fill="rgb(0,0,0)" stroke="rgb(0,0,0)" stroke-width="1" opacity="0.796078431372549" d="M 76.5 125 L 75.5 127 L 76.5 125 Z " /><path fill="rgb(0,0,0)" stroke="rgb(0,0,0)" stroke-width="1" opacity="0.796078431372549" d="M 99.5 125 L 98.5 127 L 99.5 125 Z " /><path fill="rgb(0,0,0)" stroke="rgb(0,0,0)" stroke-width="1" opacity="0.796078431372549" d="M 97.5 128 L 96.5 130 L 97.5 128 Z " /><path fill="rgb(0,0,0)" stroke="rgb(0,0,0)" stroke-width="1" opacity="0.796078431372549" d="M 115.5 128 L 111.5 133 L 115.5 128 Z " /><path fill="rgb(0,0,0)" stroke="rgb(0,0,0)" stroke-width="1" opacity="0.796078431372549" d="M 325.5 128 L 326.5 130 L 325.5 128 Z " /><path fill="rgb(0,0,0)" stroke="rgb(0,0,0)" stroke-width="1" opacity="0.796078431372549" d="M 110.5 134 L 109.5 136 L 110.5 134 Z " /><path fill="rgb(0,0,0)" stroke="rgb(0,0,0)" stroke-width="1" opacity="0.796078431372549" d="M 105.5 141 L 104.5 143 L 105.5 141 Z " /><path fill="rgb(0,0,0)" stroke="rgb(0,0,0)" stroke-width="1" opacity="0.796078431372549" d="M 103.5 144 L 100.5 148 L 99 147.5 L 103.5 144 Z " /><path fill="rgb(0,0,0)" stroke="rgb(0,0,0)" stroke-width="1" opacity="0.796078431372549" d="M 91.5 145 L 93.5 148 L 91.5 145 Z " /><path fill="rgb(0,0,0)" stroke="rgb(0,0,0)" stroke-width="1" opacity="0.796078431372549" d="M 29.5 166 L 30 168.5 L 29 168.5 L 29.5 166 Z " /><path fill="rgb(0,0,0)" stroke="rgb(0,0,0)" stroke-width="1" opacity="0.796078431372549" d="M 79.5 169 L 77.5 172 L 79.5 169 Z " /><path fill="rgb(0,0,0)" stroke="rgb(0,0,0)" stroke-width="1" opacity="0.796078431372549" d="M 87.5 169 L 89.5 172 L 87.5 169 Z " /><path fill="rgb(0,0,0)" stroke="rgb(0,0,0)" stroke-width="1" opacity="0.796078431372549" d="M 28.5 172 L 29 175.5 L 28 175.5 L 28.5 172 Z " /><path fill="rgb(0,0,0)" stroke="rgb(0,0,0)" stroke-width="1" opacity="0.796078431372549" d="M 371.5 172 L 372 174.5 L 371 174.5 L 371.5 172 Z " /><path fill="rgb(0,0,0)" stroke="rgb(0,0,0)" stroke-width="1" opacity="0.796078431372549" d="M 76.5 173 L 77 175.5 L 76 175.5 L 76.5 173 Z " /><path fill="rgb(0,0,0)" stroke="rgb(0,0,0)" stroke-width="1" opacity="0.796078431372549" d="M 90.5 174 L 91 176.5 L 90 176.5 L 90.5 174 Z " /><path fill="rgb(0,0,0)" stroke="rgb(0,0,0)" stroke-width="1" opacity="0.796078431372549" d="M 56.5 175 L 57 177.5 L 56 177.5 L 56.5 175 Z " /><path fill="rgb(0,0,0)" stroke="rgb(0,0,0)" stroke-width="1" opacity="0.796078431372549" d="M 343.5 175 L 344 177.5 L 343 177.5 L 343.5 175 Z " /><path fill="rgb(0,0,0)" stroke="rgb(0,0,0)" stroke-width="1" opacity="0.796078431372549" d="M 75.5 178 L 76 180.5 L 75 180.5 L 75.5 178 Z " /><path fill="rgb(0,0,0)" stroke="rgb(0,0,0)" stroke-width="1" opacity="0.796078431372549" d="M 372.5 178 L 373 180.5 L 372 180.5 L 372.5 178 Z " /><path fill="rgb(0,0,0)" stroke="rgb(0,0,0)" stroke-width="1" opacity="0.796078431372549" d="M 27.5 179 L 28 181.5 L 27 181.5 L 27.5 179 Z " /><path fill="rgb(0,0,0)" stroke="rgb(0,0,0)" stroke-width="1" opacity="0.796078431372549" d="M 89.5 179 L 90 181.5 L 89 181.5 L 89.5 179 Z " /><path fill="rgb(0,0,0)" stroke="rgb(0,0,0)" stroke-width="1" opacity="0.796078431372549" d="M 344.5 181 L 345 184.5 L 344 184.5 L 344.5 181 Z " /><path fill="rgb(0,0,0)" stroke="rgb(0,0,0)" stroke-width="1" opacity="0.796078431372549" d="M 55.5 182 L 56 184.5 L 55 184.5 L 55.5 182 Z " /><path fill="rgb(0,0,0)" stroke="rgb(0,0,0)" stroke-width="1" opacity="0.796078431372549" d="M 373.5 185 L 374 194.5 L 373 194.5 L 373.5 185 Z " /><path fill="rgb(0,0,0)" stroke="rgb(0,0,0)" stroke-width="1" opacity="0.796078431372549" d="M 26.5 187 L 27 196.5 L 26 196.5 L 26.5 187 Z " /><path fill="rgb(0,0,0)" stroke="rgb(0,0,0)" stroke-width="1" opacity="0.796078431372549" d="M 345.5 188 L 346 197.5 L 345 197.5 L 345.5 188 Z " /><path fill="rgb(0,0,0)" stroke="rgb(0,0,0)" stroke-width="1" opacity="0.796078431372549" d="M 54.5 190 L 55 199.5 L 54 199.5 L 54.5 190 Z " /><path fill="rgb(0,0,0)" stroke="rgb(0,0,0)" stroke-width="1" opacity="0.796078431372549" d="M 73.5 190 L 74 199.5 L 73 199.5 L 73.5 190 Z " /><path fill="rgb(0,0,0)" stroke="rgb(0,0,0)" stroke-width="1" opacity="0.796078431372549" d="M 87.5 192 L 88 197.5 L 87 197.5 L 87.5 192 Z " /><path fill="rgb(0,0,0)" stroke="rgb(0,0,0)" stroke-width="1" opacity="0.796078431372549" d="M 86.5 201 L 83.5 205 L 86.5 201 Z " /><path fill="rgb(0,0,0)" stroke="rgb(0,0,0)" stroke-width="1" opacity="0.796078431372549" d="M 54.5 205 L 55 214.5 L 54 214.5 L 54.5 205 Z " /><path fill="rgb(0,0,0)" stroke="rgb(0,0,0)" stroke-width="1" opacity="0.796078431372549" d="M 345.5 207 L 346 215.5 L 345 215.5 L 345.5 207 Z " /><path fill="rgb(0,0,0)" stroke="rgb(0,0,0)" stroke-width="1" opacity="0.796078431372549" d="M 26.5 208 L 27 217.5 L 26 217.5 L 26.5 208 Z " /><path fill="rgb(0,0,0)" stroke="rgb(0,0,0)" stroke-width="1" opacity="0.796078431372549" d="M 373.5 214 L 374 218.5 L 373 218.5 L 373.5 214 Z " /><path fill="rgb(0,0,0)" stroke="rgb(0,0,0)" stroke-width="1" opacity="0.796078431372549" d="M 55.5 220 L 56 222.5 L 55 222.5 L 55.5 220 Z " /><path fill="rgb(0,0,0)" stroke="rgb(0,0,0)" stroke-width="1" opacity="0.796078431372549" d="M 344.5 220 L 345 223.5 L 344 223.5 L 344.5 220 Z " /><path fill="rgb(0,0,0)" stroke="rgb(0,0,0)" stroke-width="1" opacity="0.796078431372549" d="M 27.5 223 L 28 225.5 L 27 225.5 L 27.5 223 Z " /><path fill="rgb(0,0,0)" stroke="rgb(0,0,0)" stroke-width="1" opacity="0.796078431372549" d="M 372.5 224 L 373 227.5 L 372 227.5 L 372.5 224 Z " /><path fill="rgb(0,0,0)" stroke="rgb(0,0,0)" stroke-width="1" opacity="0.796078431372549" d="M 56.5 226 L 57 229.5 L 56 229.5 L 56.5 226 Z " /><path fill="rgb(0,0,0)" stroke="rgb(0,0,0)" stroke-width="1" opacity="0.796078431372549" d="M 343.5 227 L 344 229.5 L 343 229.5 L 343.5 227 Z " /><path fill="rgb(0,0,0)" stroke="rgb(0,0,0)" stroke-width="1" opacity="0.796078431372549" d="M 28.5 229 L 29 231.5 L 28 231.5 L 28.5 229 Z " /><path fill="rgb(0,0,0)" stroke="rgb(0,0,0)" stroke-width="1" opacity="0.796078431372549" d="M 370.5 236 L 371 238.5 L 370 238.5 L 370.5 236 Z " /><path fill="rgb(0,0,0)" stroke="rgb(0,0,0)" stroke-width="1" opacity="0.796078431372549" d="M 72.5 273 L 73.5 275 L 72.5 273 Z " /><path fill="rgb(0,0,0)" stroke="rgb(0,0,0)" stroke-width="1" opacity="0.796078431372549" d="M 327.5 273 L 326.5 275 L 327.5 273 Z " /><path fill="rgb(0,0,0)" stroke="rgb(0,0,0)" stroke-width="1" opacity="0.796078431372549" d="M 75.5 278 L 76.5 280 L 75.5 278 Z " /><path fill="rgb(0,0,0)" stroke="rgb(0,0,0)" stroke-width="1" opacity="0.796078431372549" d="M 324.5 278 L 323.5 280 L 324.5 278 Z " /><path fill="rgb(0,0,0)" stroke="rgb(0,0,0)" stroke-width="1" opacity="0.796078431372549" d="M 321.5 283 L 320.5 285 L 321.5 283 Z " /><path fill="rgb(0,0,0)" stroke="rgb(0,0,0)" stroke-width="1" opacity="0.796078431372549" d="M 79.5 284 L 80.5 286 L 79.5 284 Z " /><path fill="rgb(0,0,0)" stroke="rgb(0,0,0)" stroke-width="1" opacity="0.796078431372549" d="M 47.5 286 L 48.5 288 L 47.5 286 Z " /><path fill="rgb(0,0,0)" stroke="rgb(0,0,0)" stroke-width="1" opacity="0.796078431372549" d="M 352.5 286 L 351.5 288 L 352.5 286 Z " /><path fill="rgb(0,0,0)" stroke="rgb(0,0,0)" stroke-width="1" opacity="0.796078431372549" d="M 81.5 287 L 83.5 290 L 81.5 287 Z " /><path fill="rgb(0,0,0)" stroke="rgb(0,0,0)" stroke-width="1" opacity="0.796078431372549" d="M 318.5 287 L 317.5 289 L 318.5 287 Z " /><path fill="rgb(0,0,0)" stroke="rgb(0,0,0)" stroke-width="1" opacity="0.796078431372549" d="M 350.5 289 L 352.5 292 L 350.5 289 Z " /><path fill="rgb(0,0,0)" stroke="rgb(0,0,0)" stroke-width="1" opacity="0.796078431372549" d="M 84.5 291 L 86.5 294 L 84.5 291 Z " /><path fill="rgb(0,0,0)" stroke="rgb(0,0,0)" stroke-width="1" opacity="0.796078431372549" d="M 315.5 291 L 314.5 293 L 315.5 291 Z " /><path fill="rgb(0,0,0)" stroke="rgb(0,0,0)" stroke-width="1" opacity="0.796078431372549" d="M 354.5 292 L 356.5 295 L 354.5 292 Z " /><path fill="rgb(0,0,0)" stroke="rgb(0,0,0)" stroke-width="1" opacity="0.796078431372549" d="M 87.5 295 L 93.5 302 L 87.5 295 Z " /><path fill="rgb(0,0,0)" stroke="rgb(0,0,0)" stroke-width="1" opacity="0.796078431372549" d="M 312.5 295 L 307.5 301 L 312.5 295 Z " /><path fill="rgb(0,0,0)" stroke="rgb(0,0,0)" stroke-width="1" opacity="0.796078431372549" d="M 55.5 299 L 56.5 301 L 55.5 299 Z " /><path fill="rgb(0,0,0)" stroke="rgb(0,0,0)" stroke-width="1" opacity="0.796078431372549" d="M 58.5 303 L 59.5 305 L 58.5 303 Z " /><path fill="rgb(0,0,0)" stroke="rgb(0,0,0)" stroke-width="1" opacity="0.796078431372549" d="M 61.5 307 L 62.5 309 L 61.5 307 Z " /><path fill="rgb(0,0,0)" stroke="rgb(0,0,0)" stroke-width="1" opacity="0.796078431372549" d="M 101.5 309 L 106.5 315 L 101.5 309 Z " /><path fill="rgb(0,0,0)" stroke="rgb(0,0,0)" stroke-width="1" opacity="0.796078431372549" d="M 298.5 309 L 292.5 316 L 298.5 309 Z " /><path fill="rgb(0,0,0)" stroke="rgb(0,0,0)" stroke-width="1" opacity="0.796078431372549" d="M 64.5 311 L 65.5 313 L 64.5 311 Z " /><path fill="rgb(0,0,0)" stroke="rgb(0,0,0)" stroke-width="1" opacity="0.796078431372549" d="M 109.5 316 L 110.5 318 L 109.5 316 Z " /><path fill="rgb(0,0,0)" stroke="rgb(0,0,0)" stroke-width="1" opacity="0.796078431372549" d="M 290.5 316 L 288.5 319 L 290.5 316 Z " /><path fill="rgb(0,0,0)" stroke="rgb(0,0,0)" stroke-width="1" opacity="0.796078431372549" d="M 333.5 316 L 332.5 318 L 333.5 316 Z " /><path fill="rgb(0,0,0)" stroke="rgb(0,0,0)" stroke-width="1" opacity="0.796078431372549" d="M 339.5 316 L 453.5 431 L 339.5 316 Z " /><path fill="rgb(0,0,0)" stroke="rgb(0,0,0)" stroke-width="1" opacity="0.796078431372549" d="M 70.5 318 L 75.5 324 L 70.5 318 Z " /><path fill="rgb(0,0,0)" stroke="rgb(0,0,0)" stroke-width="1" opacity="0.796078431372549" d="M 113.5 319 L 114.5 321 L 113.5 319 Z " /><path fill="rgb(0,0,0)" stroke="rgb(0,0,0)" stroke-width="1" opacity="0.796078431372549" d="M 286.5 319 L 285.5 321 L 286.5 319 Z " /><path fill="rgb(0,0,0)" stroke="rgb(0,0,0)" stroke-width="1" opacity="0.796078431372549" d="M 329.5 319 L 321.5 328 L 329.5 319 Z " /><path fill="rgb(0,0,0)" stroke="rgb(0,0,0)" stroke-width="1" opacity="0.796078431372549" d="M 117.5 322 L 118.5 324 L 117.5 322 Z " /><path fill="rgb(0,0,0)" stroke="rgb(0,0,0)" stroke-width="1" opacity="0.796078431372549" d="M 282.5 322 L 281.5 324 L 282.5 322 Z " /><path fill="rgb(0,0,0)" stroke="rgb(0,0,0)" stroke-width="1" opacity="0.796078431372549" d="M 279.5 324 L 278.5 326 L 279.5 324 Z " /><path fill="rgb(0,0,0)" stroke="rgb(0,0,0)" stroke-width="1" opacity="0.796078431372549" d="M 78.5 326 L 84.5 333 L 78.5 326 Z " /><path fill="rgb(0,0,0)" stroke="rgb(0,0,0)" stroke-width="1" opacity="0.796078431372549" d="M 125.5 327 L 126.5 329 L 125.5 327 Z " /><path fill="rgb(0,0,0)" stroke="rgb(0,0,0)" stroke-width="1" opacity="0.796078431372549" d="M 274.5 327 L 273.5 329 L 274.5 327 Z " /><path fill="rgb(0,0,0)" stroke="rgb(0,0,0)" stroke-width="1" opacity="0.796078431372549" d="M 319.5 330 L 318.5 332 L 319.5 330 Z " /><path fill="rgb(0,0,0)" stroke="rgb(0,0,0)" stroke-width="1" opacity="0.796078431372549" d="M 317.5 333 L 318 335.5 L 435 452.5 L 317 335.5 L 317.5 333 Z " /><path fill="rgb(0,0,0)" stroke="rgb(0,0,0)" stroke-width="1" opacity="0.796078431372549" d="M 89.5 336 L 91.5 339 L 89.5 336 Z " /><path fill="rgb(0,0,0)" stroke="rgb(0,0,0)" stroke-width="1" opacity="0.796078431372549" d="M 93.5 339 L 95.5 342 L 93.5 339 Z " /><path fill="rgb(0,0,0)" stroke="rgb(0,0,0)" stroke-width="1" opacity="0.796078431372549" d="M 97.5 342 L 99.5 345 L 97.5 342 Z " /><path fill="rgb(0,0,0)" stroke="rgb(0,0,0)" stroke-width="1" opacity="0.796078431372549" d="M 101.5 345 L 102.5 347 L 101.5 345 Z " /><path fill="rgb(0,0,0)" stroke="rgb(0,0,0)" stroke-width="1" opacity="0.796078431372549" d="M 170.5 345 L 173 345.5 L 170.5 346 L 170.5 345 Z " /><path fill="rgb(0,0,0)" stroke="rgb(0,0,0)" stroke-width="1" opacity="0.796078431372549" d="M 227.5 345 L 230 345.5 L 227.5 346 L 227.5 345 Z " /><path fill="rgb(0,0,0)" stroke="rgb(0,0,0)" stroke-width="1" opacity="0.796078431372549" d="M 176.5 346 L 180 346.5 L 176.5 347 L 176.5 346 Z " /><path fill="rgb(0,0,0)" stroke="rgb(0,0,0)" stroke-width="1" opacity="0.796078431372549" d="M 220.5 346 L 224 346.5 L 220.5 347 L 220.5 346 Z " /><path fill="rgb(0,0,0)" stroke="rgb(0,0,0)" stroke-width="1" opacity="0.796078431372549" d="M 104.5 347 L 105.5 349 L 104.5 347 Z " /><path fill="rgb(0,0,0)" stroke="rgb(0,0,0)" stroke-width="1" opacity="0.796078431372549" d="M 183.5 347 L 188 347.5 L 183.5 348 L 183.5 347 Z " /><path fill="rgb(0,0,0)" stroke="rgb(0,0,0)" stroke-width="1" opacity="0.796078431372549" d="M 212.5 347 L 217 347.5 L 212.5 348 L 212.5 347 Z " /><path fill="rgb(0,0,0)" stroke="rgb(0,0,0)" stroke-width="1" opacity="0.796078431372549" d="M 198.5 348 L 202 348.5 L 198.5 349 L 198.5 348 Z " /><path fill="rgb(0,0,0)" stroke="rgb(0,0,0)" stroke-width="1" opacity="0.796078431372549" d="M 294.5 351 L 295.5 353 L 294.5 351 Z " /><path fill="rgb(0,0,0)" stroke="rgb(0,0,0)" stroke-width="1" opacity="0.796078431372549" d="M 112.5 352 L 113.5 354 L 112.5 352 Z " /><path fill="rgb(0,0,0)" stroke="rgb(0,0,0)" stroke-width="1" opacity="0.796078431372549" d="M 287.5 352 L 286.5 354 L 287.5 352 Z " /><path fill="rgb(0,0,0)" stroke="rgb(0,0,0)" stroke-width="1" opacity="0.796078431372549" d="M 298.5 356 L 413.5 472 L 298.5 356 Z " /><path fill="rgb(0,0,0)" stroke="rgb(0,0,0)" stroke-width="1" opacity="0.796078431372549" d="M 167.5 373 L 170 373.5 L 167.5 374 L 167.5 373 Z " /><path fill="rgb(0,0,0)" stroke="rgb(0,0,0)" stroke-width="1" opacity="0.796078431372549" d="M 230.5 373 L 233 373.5 L 230.5 374 L 230.5 373 Z " /><path fill="rgb(0,0,0)" stroke="rgb(0,0,0)" stroke-width="1" opacity="0.796078431372549" d="M 174.5 374 L 177 374.5 L 174.5 375 L 174.5 374 Z " /><path fill="rgb(0,0,0)" stroke="rgb(0,0,0)" stroke-width="1" opacity="0.796078431372549" d="M 224.5 374 L 227 374.5 L 224.5 375 L 224.5 374 Z " /><path fill="rgb(0,0,0)" stroke="rgb(0,0,0)" stroke-width="1" opacity="0.796078431372549" d="M 180.5 375 L 186 375.5 L 180.5 376 L 180.5 375 Z " /><path fill="rgb(0,0,0)" stroke="rgb(0,0,0)" stroke-width="1" opacity="0.796078431372549" d="M 215.5 375 L 220 375.5 L 215.5 376 L 215.5 375 Z " /><path fill="rgb(0,0,0)" stroke="rgb(0,0,0)" stroke-width="1" opacity="0.796078431372549" d="M 196.5 376 L 206 376.5 L 196.5 377 L 196.5 376 Z " /><path fill="rgb(0,0,0)" stroke="rgb(0,0,0)" stroke-width="1" opacity="0.796078431372549" d="M 474.5 412 L 476.5 415 L 474.5 412 Z " /><path fill="rgb(0,0,0)" stroke="rgb(0,0,0)" stroke-width="1" opacity="0.796078431372549" d="M 485.5 433 L 486 437.5 L 485 437.5 L 485.5 433 Z " /><path fill="rgb(0,0,0)" stroke="rgb(0,0,0)" stroke-width="1" opacity="0.796078431372549" d="M 457.5 437 L 458 439.5 L 457 439.5 L 457.5 437 Z " /><path fill="rgb(0,0,0)" stroke="rgb(0,0,0)" stroke-width="1" opacity="0.796078431372549" d="M 485.5 444 L 486 448.5 L 485 448.5 L 485.5 444 Z " /><path fill="rgb(0,0,0)" stroke="rgb(0,0,0)" stroke-width="1" opacity="0.796078431372549" d="M 454.5 450 L 452.5 453 L 454.5 450 Z " /><path fill="rgb(0,0,0)" stroke="rgb(0,0,0)" stroke-width="1" opacity="0.796078431372549" d="M 442.5 455 L 445 455.5 L 442.5 456 L 442.5 455 Z " /><path fill="rgb(0,0,0)" stroke="rgb(0,0,0)" stroke-width="1" opacity="0.796078431372549" d="M 482.5 458 L 481.5 460 L 482.5 458 Z " /><path fill="rgb(0,0,0)" stroke="rgb(0,0,0)" stroke-width="1" opacity="0.796078431372549" d="M 478.5 465 L 476.5 468 L 478.5 465 Z " /><path fill="rgb(0,0,0)" stroke="rgb(0,0,0)" stroke-width="1" opacity="0.796078431372549" d="M 416.5 473 L 418.5 476 L 416.5 473 Z " /><path fill="rgb(0,0,0)" stroke="rgb(0,0,0)" stroke-width="1" opacity="0.796078431372549" d="M 470.5 473 L 468.5 476 L 470.5 473 Z " /><path fill="rgb(0,0,0)" stroke="rgb(0,0,0)" stroke-width="1" opacity="0.796078431372549" d="M 439.5 483 L 448 483.5 L 439.5 484 L 439.5 483 Z " /><path fill="rgb(0,0,0)" stroke="rgb(0,0,0)" stroke-width="1" opacity="0" d="M 0 0 L 512 0 L 512 512 L 0 512 L 0 0 Z M 193 28 L 192 29 L 180 29 L 179 30 L 167 31 L 134 41 Q 107 52 87 70 Q 63 90 47 119 L 40 133 L 33 152 L 31 163 L 29 167 L 27 187 L 26 188 L 26 218 L 27 219 L 29 238 L 34 257 L 47 287 Q 57 304 70 319 Q 95 347 132 363 L 163 373 L 180 375 L 181 376 L 196 376 L 197 377 L 220 376 L 250 370 L 269 363 L 294 350 L 298 357 L 414 472 L 428 481 L 440 484 L 448 484 L 460 481 L 474 472 L 483 459 L 486 449 L 486 434 L 484 427 L 477 415 L 351 290 Q 362 272 368 251 L 374 219 L 374 186 L 368 155 Q 356 116 333 90 Q 307 58 267 41 L 234 31 L 222 30 L 221 29 L 209 29 L 208 28 L 193 28 Z " /><path fill="rgb(0,0,0)" stroke="rgb(0,0,0)" stroke-width="1" opacity="0" d="M 185.5 57 L 214.5 57 L 221.5 59 L 227.5 59 L 254.5 67 Q 287.4 80.6 309 105.5 Q 324.8 123.2 335 146.5 L 343 172.5 L 344 184.5 L 345 185.5 L 346 206.5 L 345 207.5 L 345 219.5 L 344 220.5 L 343 232.5 L 334 260.5 Q 321.2 289.2 299.5 309 Q 279.5 328 251.5 339 L 226.5 346 L 212.5 347 L 211.5 348 L 188.5 348 L 187.5 347 L 168.5 345 L 143.5 337 Q 114.3 324.3 94 302.5 Q 74 282 63 252.5 L 57 231.5 L 57 226.5 L 55 219.5 L 54 200.5 L 55 199.5 L 55 185.5 L 56 184.5 L 57 172.5 L 66 144.5 Q 79.5 114.5 102.5 94 Q 120.7 77.2 145.5 67 L 156.5 63 L 185.5 57 Z M 186 76 L 166 80 L 154 84 Q 134 92 119 105 Q 101 119 90 140 L 91 146 L 97 149 L 101 148 L 116 128 Q 133 109 158 98 L 183 91 L 202 90 L 207 86 L 206 79 L 203 76 L 186 76 Z M 82 168 L 80 169 L 76 174 L 73 191 Q 72 198 74 202 Q 76 207 84 205 L 87 202 L 88 187 L 91 177 L 90 172 Q 88 167 82 168 Z " /><path fill="rgb(0,0,0)" stroke="rgb(0,0,0)" stroke-width="1" opacity="0" d="M 336.5 315 L 455 432.5 L 458 442.5 Q 456.9 449.9 451.5 453 Q 447.8 456.3 439.5 455 L 435.5 453 L 318 335.5 Q 317.4 330.9 320 329.5 L 331.5 318 L 336.5 315 Z " /><path fill="rgb(0,0,0)" stroke="rgb(0,0,0)" stroke-width="1" opacity="0.996078431372549" d="M 182.5 29 L 217.5 29 Q 219 31.5 224.5 30 L 251.5 36 L 265.5 41 Q 301.9 56.6 327 83.5 Q 341.5 98.5 352 117.5 L 366 149.5 L 373 181.5 L 374 213.5 L 373 214.5 L 372 230.5 L 365 258.5 Q 359.2 275.7 350 289.5 L 357.5 295 L 474 411.5 Q 485.5 422 486 443.5 L 483 457.5 L 471.5 473 Q 465.1 479.1 455.5 482 Q 447.6 484.6 435.5 483 Q 423.1 480.4 415.5 473 L 296 353.5 L 293.5 350 L 262.5 365 L 235.5 373 L 230.5 373 L 223.5 375 L 215.5 375 L 214.5 376 L 186.5 376 L 185.5 375 L 164.5 373 L 132.5 363 Q 99.7 348.3 76 324.5 Q 51.1 299.4 37 263.5 L 29 235.5 L 29 229.5 L 27 222.5 L 26 197.5 L 27 196.5 L 27 182.5 L 29 175.5 L 29 169.5 L 34 149.5 L 41 131.5 Q 55.8 99.8 79.5 77 Q 102.5 54.5 134.5 41 L 163.5 32 L 175.5 31 L 182.5 29 Z M 196 56 L 195 57 L 183 57 L 182 58 L 171 59 L 145 67 Q 118 78 99 97 Q 77 117 65 146 L 57 171 L 55 190 L 54 191 L 54 215 L 55 216 L 56 230 L 60 246 Q 69 275 87 296 Q 110 323 145 338 L 171 346 L 183 347 L 184 348 L 198 348 L 199 349 L 230 346 L 256 338 L 279 326 L 304 306 L 322 284 L 335 260 L 343 235 L 345 217 L 346 216 L 346 189 L 345 188 L 343 171 L 338 154 Q 327 123 306 102 Q 285 80 256 67 L 231 59 L 219 58 L 218 57 L 196 56 Z M 336 315 L 330 319 Q 321 325 317 336 L 435 453 L 443 456 L 453 453 L 458 445 L 458 438 L 454 431 L 340 316 L 336 315 Z " /><path fill="rgb(0,0,0)" stroke="rgb(0,0,0)" stroke-width="1" opacity="0.996078431372549" d="M 189.5 76 L 202.5 76 L 206 79.5 L 207 83.5 L 205 88 L 198.5 90 L 185.5 90 L 170.5 93 L 156.5 98 Q 134.5 107.5 119 123.5 L 100.5 147 L 94.5 148 Q 90.5 146 90 140.5 Q 99.5 122 114.5 109 Q 128 96.5 145.5 88 L 167.5 80 L 189.5 76 Z " /><path fill="rgb(0,0,0)" stroke="rgb(0,0,0)" stroke-width="1" opacity="0.996078431372549" d="M 82.5 168 Q 88.1 168.5 90 172.5 L 90 178.5 L 87 192.5 L 87 200.5 L 82.5 205 Q 76.7 205.8 75 202.5 L 74 200.5 L 74 185.5 L 77 172.5 L 80.5 169 L 82.5 168 Z " /></svg>