<?xml version="1.0" standalone="no"?>
<!DOCTYPE svg PUBLIC "-//W3C//DTD SVG 20010904//EN"
 "http://www.w3.org/TR/2001/REC-SVG-20010904/DTD/svg10.dtd">
<svg version="1.0" xmlns="http://www.w3.org/2000/svg"
 width="512.000000pt" height="512.000000pt" viewBox="0 0 512.000000 512.000000"
 preserveAspectRatio="xMidYMid meet">

<g transform="translate(0.000000,512.000000) scale(0.100000,-0.100000)"
fill="#000000" stroke="none">
<path d="M741 4934 c-139 -37 -286 -158 -349 -286 -63 -128 -62 -112 -62
-1104 0 -869 1 -904 20 -979 44 -173 161 -302 336 -372 l69 -28 618 -3 617 -3
0 135 0 135 -597 3 -598 3 -54 30 c-29 16 -64 43 -77 60 -57 75 -54 26 -54
1030 0 1004 -3 955 54 1030 13 17 48 44 77 60 l54 30 935 0 935 0 41 -22 c53
-28 96 -71 120 -120 18 -36 19 -72 22 -660 l2 -623 140 0 140 0 0 593 c0 660
-2 675 -66 806 -45 91 -142 192 -229 238 -124 65 -86 63 -1111 62 -778 0 -938
-3 -983 -15z"/>
<path d="M1650 4363 c-36 -8 -67 -17 -68 -18 -2 -2 6 -25 18 -52 21 -45 60
-151 60 -161 0 -5 -491 6 -607 14 l-83 6 0 -77 0 -78 152 4 151 4 14 -70 c37
-185 136 -418 234 -552 l48 -66 -31 -23 c-93 -69 -284 -147 -433 -179 -44 -9
-91 -18 -103 -21 -23 -5 -23 -6 15 -47 21 -23 45 -57 52 -74 7 -18 19 -33 25
-33 58 0 357 137 492 225 l86 56 75 -51 c130 -90 351 -187 509 -224 l62 -14
17 38 c9 21 39 60 66 88 l50 49 -88 6 c-115 8 -213 29 -323 71 -87 32 -250
122 -250 137 0 5 23 38 50 75 93 122 169 303 204 484 9 47 19 94 21 105 4 18
11 20 67 18 35 -2 109 -4 166 -5 l102 -3 0 78 0 79 -107 -6 c-60 -3 -192 -8
-295 -12 l-188 -6 -11 29 c-6 15 -17 62 -25 103 -8 41 -17 85 -20 98 -5 26
-14 26 -104 5z m260 -383 c0 -51 -37 -222 -65 -300 -34 -94 -73 -163 -125
-223 l-41 -46 -34 37 c-51 57 -122 177 -156 267 -30 76 -79 252 -79 281 0 12
45 14 250 14 l250 0 0 -30z"/>
<path d="M2696 2945 c-200 -55 -359 -223 -402 -424 -11 -54 -14 -234 -14 -967
0 -865 1 -904 20 -978 48 -187 176 -322 363 -381 l78 -25 939 0 939 0 78 25
c191 60 327 209 368 402 22 102 22 1815 0 1918 -44 209 -201 376 -405 430 -78
21 -1888 20 -1964 0z m1952 -279 c55 -24 126 -103 141 -158 9 -32 11 -278 9
-968 l-3 -925 -28 -47 c-31 -53 -92 -100 -152 -117 -56 -15 -1814 -15 -1870 0
-60 17 -121 64 -152 117 l-28 47 0 950 c0 1054 -5 973 66 1044 38 39 78 60
132 71 23 4 447 7 942 7 854 -2 902 -3 943 -21z"/>
<path d="M3585 2258 c-14 -38 -475 -1411 -475 -1414 0 -3 41 -3 92 -2 l92 3
66 200 65 200 274 0 274 0 28 -85 c15 -47 44 -138 65 -202 l37 -118 93 0 c52
0 94 3 94 8 0 4 -106 325 -236 715 l-236 707 -114 0 c-83 0 -116 -3 -119 -12z
m228 -510 c59 -183 107 -336 107 -340 0 -5 -100 -8 -221 -8 -206 0 -221 1
-217 18 22 80 213 662 218 662 3 0 54 -150 113 -332z"/>
<path d="M241 1892 l-195 -217 142 -3 142 -3 0 -560 c0 -481 2 -564 15 -589
32 -62 13 -60 700 -60 l625 0 0 -136 0 -135 210 197 c115 108 210 200 210 204
0 4 -93 94 -207 200 l-208 192 -3 -146 -3 -146 -549 0 -550 0 0 490 0 489 138
3 139 3 -200 215 c-110 118 -203 216 -206 217 -3 1 -93 -96 -200 -215z"/>
</g>
</svg>
